<?xml version="1.0" standalone="no"?><!DOCTYPE svg PUBLIC "-//W3C//DTD SVG 1.1//EN"
        "http://www.w3.org/Graphics/SVG/1.1/DTD/svg11.dtd">
<svg t="1579414230607" class="icon" viewBox="0 0 1024 1024" version="1.1" xmlns="http://www.w3.org/2000/svg" p-id="2032"
     width="18" height="18" xmlns:xlink="http://www.w3.org/1999/xlink">
    <defs>
        <style type="text/css"></style>
    </defs>
    <path d="M384,841.14q0,-22.86 -16,-38.86t-38.86,-16 -38.86,16 -16,38.86 16,38.86 38.86,16 38.86,-16 16,-38.86zM384,182.86q0,-22.86 -16,-38.86t-38.86,-16 -38.86,16 -16,38.86 16,38.86 38.86,16 38.86,-16 16,-38.86zM749.71,256q0,-22.86 -16,-38.86t-38.86,-16 -38.86,16 -16,38.86 16,38.86 38.86,16 38.86,-16 16,-38.86zM804.57,256q0,29.71 -14.86,55.14t-40,39.71q-1.14,164 -129.14,236.57 -38.86,21.71 -116,46.29 -73.14,22.86 -96.86,40.57t-23.71,57.14l0,14.86q25.14,14.29 40,39.71t14.86,55.14q0,45.71 -32,77.71t-77.71,32 -77.71,-32 -32,-77.71q0,-29.71 14.86,-55.14t40,-39.71l0,-468.57q-25.14,-14.29 -40,-39.71t-14.86,-55.14q0,-45.71 32,-77.71t77.71,-32 77.71,32 32,77.71q0,29.71 -14.86,55.14t-40,39.71l0,284q30.86,-14.86 88,-32.57 31.43,-9.71 50,-16.86t40.29,-17.71 33.71,-22.57 23.14,-29.14 16,-39.71 4.86,-52.29q-25.14,-14.29 -40,-39.71t-14.86,-55.14q0,-45.71 32,-77.71t77.71,-32 77.71,32 32,77.71z"
          fill="#cccccc" p-id="2033"></path>
</svg>