<?xml version="1.0" standalone="no"?><!DOCTYPE svg PUBLIC "-//W3C//DTD SVG 1.1//EN"
        "http://www.w3.org/Graphics/SVG/1.1/DTD/svg11.dtd">
<svg t="1579414230607" class="icon" viewBox="0 0 1024 1024" version="1.1" xmlns="http://www.w3.org/2000/svg" p-id="2032"
     width="48" height="48" xmlns:xlink="http://www.w3.org/1999/xlink">
    <defs>
        <style type="text/css"></style>
    </defs>
    <path d="M805.06,165.31A343.3,343.3 0,0 0,524.67 0h-29.47a334.38,334.38 0,0 0,-262.34 144.1,348.38 348.38,0 0,0 -47.07,303.74 322.52,322.52 0,0 0,22.1 51.57l260.64,498.96a45.23,45.23 0,0 0,41.03 25.64,45.23 45.23,0 0,0 40.96,-25.71l270.59,-517.38 0.59,-1.11a327.83,327.83 0,0 0,-16.65 -314.49zM511.78,469.05a125.24,125.24 0,1 1,125.24 -125.24,125.24 125.24,0 0,1 -125.24,125.24z"
          fill="#cccccc" p-id="2033"></path>
</svg>