<?xml version="1.0" standalone="no"?><!DOCTYPE svg PUBLIC "-//W3C//DTD SVG 1.1//EN"
        "http://www.w3.org/Graphics/SVG/1.1/DTD/svg11.dtd">
<svg t="1579414230607" class="icon" viewBox="0 0 1024 1024" version="1.1" xmlns="http://www.w3.org/2000/svg" p-id="2032"
     width="48" height="48" xmlns:xlink="http://www.w3.org/1999/xlink">
    <defs>
        <style type="text/css"></style>
    </defs>
    <path d="M912.96,882.79a37.14,37.14 0,0 1,-74.28 0v-0.43h-1.06a294.75,294.75 0,0 0,-285.54 -255.04c-3.19,0.12 -6.3,0.47 -9.53,0.47s-6.32,-0.35 -9.49,-0.47a294.75,294.75 0,0 0,-285.34 255.04h-0.91v0.43a37.14,37.14 0,0 1,-74.28 0l-0.33,-3.39a35.45,35.45 0,0 1,2.68 -13.41A365.45,365.45 0,0 1,395.82 583.38a253.16,253.16 0,0 1,-113.64 -210.53A257.73,257.73 0,0 1,542.64 117.94a257.73,257.73 0,0 1,260.43 254.92,253.16 253.16,0 0,1 -113.57,210.47 365.31,365.31 0,0 1,221.52 286.13,35.27 35.27,0 0,1 1.6,9.94zM728.62,372.93a186.07,186.07 0,0 0,-372.05 0,186.07 186.07,0 0,0 372.05,0z"
          fill="#cccccc" p-id="2033"></path>
</svg>