<?xml version="1.0" standalone="no"?><!DOCTYPE svg PUBLIC "-//W3C//DTD SVG 1.1//EN"
        "http://www.w3.org/Graphics/SVG/1.1/DTD/svg11.dtd">
<svg t="1579414230607" class="icon" viewBox="0 0 1024 1024" version="1.1" xmlns="http://www.w3.org/2000/svg" p-id="2032"
     width="48" height="48" xmlns:xlink="http://www.w3.org/1999/xlink">
    <defs>
        <style type="text/css"></style>
    </defs>

    <path
      fill="#cccccc"
       p-id="2033"
      d="M862.08,480A350.08,350.08 0,0 0,544 161.92L544,64h-64v97.92A350.08,350.08 0,0 0,161.92 480L64,480v64h97.92a350.08,350.08 0,0 0,318.08 318.08L480,960h64v-97.92a350.08,350.08 0,0 0,318.08 -318.08L960,544v-64h-97.92zM480,798.08A287.23,287.23 0,0 1,225.92 544L480,544v254.08zM480,480L225.92,480A287.23,287.23 0,0 1,480 225.92L480,480zM544,225.92c133.76,14.72 239.36,120.32 254.08,254.08L544,480L544,225.92zM544,798.08L544,544h254.08a287.23,287.23 0,0 1,-254.08 254.08z"/>

</svg>