<?xml version="1.0" standalone="no"?><!DOCTYPE svg PUBLIC "-//W3C//DTD SVG 1.1//EN"
        "http://www.w3.org/Graphics/SVG/1.1/DTD/svg11.dtd">
<svg t="1579414230607" class="icon" viewBox="0 0 1024 1024" version="1.1" xmlns="http://www.w3.org/2000/svg" p-id="2032"
     width="18" height="18" xmlns:xlink="http://www.w3.org/1999/xlink">
    <defs>
        <style type="text/css"></style>
    </defs>
    <path d="M512,171.28c-255.05,0 -485.93,312.44 -496.8,327.33l0,0.63C26.07,514.13 256.95,826.49 512,826.49c255.02,0 485.89,-312.4 496.8,-327.33l0,-0.63C997.93,483.68 767.02,171.28 512,171.28L512,171.28zM512,291.21c114.57,0 207.75,93.11 207.75,207.68S626.57,706.64 512,706.64c-114.53,0 -207.75,-93.18 -207.75,-207.75S397.47,291.21 512,291.21M512,395.22c-57.27,0 -103.66,46.43 -103.66,103.66s46.4,103.66 103.66,103.66c57.23,0 103.62,-46.43 103.62,-103.66S569.23,395.22 512,395.22z"
          fill="#cccccc" p-id="2033"></path>
</svg>